<svg xmlns="http://www.w3.org/2000/svg" xmlns:xlink="http://www.w3.org/1999/xlink" xmlns:lucid="lucid" width="3132.49" height="1931.47"><g transform="translate(2581.5 134.8624426926981)" lucid:page-tab-id="CXKHEyPNL6TJ"><path d="M-2418.2 566a6 6 0 0 1 6-6h155.12a6 6 0 0 1 6 6v94.6a6 6 0 0 1-6 6h-155.12a6 6 0 0 1-6-6z" stroke="#3a414a" stroke-width="3" fill="#fff"/><use xlink:href="#a" transform="matrix(1,0,0,1,-2409.8432933983254,565.3304223973969) translate(19.961111111111116 38.8)"/><use xlink:href="#b" transform="matrix(1,0,0,1,-2409.8432933983254,565.3304223973969) translate(11.077777777777797 70)"/><use xlink:href="#c" transform="matrix(1,0,0,1,-2409.8432933983254,565.3304223973969) translate(83.73333333333333 70)"/><path d="M-2494.1 613.3c0 16.18-14.76 29.3-32.95 29.3-18.2 0-32.95-13.12-32.95-29.3 0-16.17 14.75-29.28 32.95-29.28 18.2 0 32.95 13.1 32.95 29.28z" stroke="#3a414a" stroke-width="3" fill="#fff"/><path d="M-2491.1 613.3h60.3" stroke="#3a414a" stroke-width="3" stroke-linejoin="round" fill="none"/><path d="M-2491.06 614.78h-1.65l.1-1.44-.04-1.5h1.58z" stroke="#3a414a" stroke-width=".05" fill="#3a414a"/><path d="M-2422.65 613.3l-12.9 7.64v-15.27z" stroke="#3a414a" stroke-width="3" fill="#3a414a"/><path d="M-600 551.93a6 6 0 0 1 6-6h155.12a6 6 0 0 1 6 6v94.6a6 6 0 0 1-6 6H-594a6 6 0 0 1-6-6z" stroke="#3a414a" stroke-width="3" fill="#fff"/><use xlink:href="#d" transform="matrix(1,0,0,1,-591.6442027284049,551.260206962342) translate(47.36944444444445 53.8)"/><path d="M-600 766.85a6 6 0 0 1 6-6h155.12a6 6 0 0 1 6 6v94.6a6 6 0 0 1-6 6H-594a6 6 0 0 1-6-6z" stroke="#3a414a" stroke-width="3" fill="#fff"/><use xlink:href="#e" transform="matrix(1,0,0,1,-591.6442027284049,766.1816574771074) translate(13.461111111111123 53.8)"/><use xlink:href="#f" transform="matrix(1,0,0,1,-591.6442027284049,766.1816574771074) translate(61.12777777777779 53.8)"/><path d="M-516.44 665.15v92.7" stroke="#3a414a" stroke-width="3" stroke-linejoin="round" fill="none"/><path d="M-516.44 657l7.63 12.9h-15.28z" stroke="#3a414a" stroke-width="3" fill="#3a414a"/><path d="M-514.97 759.35h-2.95v-1.54h2.95z" stroke="#3a414a" stroke-width=".05" fill="#3a414a"/><path d="M-355.56 551.93a6 6 0 0 1 6-6h155.1a6 6 0 0 1 6 6v94.6a6 6 0 0 1-6 6h-155.1a6 6 0 0 1-6-6z" stroke="#3a414a" stroke-width="3" fill="#fff"/><use xlink:href="#g" transform="matrix(1,0,0,1,-347.20774228342793,551.260206962342) translate(6.166666666666657 38.8)"/><use xlink:href="#h" transform="matrix(1,0,0,1,-347.20774228342793,551.260206962342) translate(88.5 38.8)"/><use xlink:href="#i" transform="matrix(1,0,0,1,-347.20774228342793,551.260206962342) translate(7.683333333333337 70)"/><use xlink:href="#j" transform="matrix(1,0,0,1,-347.20774228342793,551.260206962342) translate(36.57222222222222 70)"/><use xlink:href="#k" transform="matrix(1,0,0,1,-347.20774228342793,551.260206962342) translate(86.98333333333332 70)"/><path d="M-429.88 599.23h61.7" stroke="#3a414a" stroke-width="3" stroke-linejoin="round" fill="none"/><path d="M-429.85 600.7h-1.53v-2.94h1.53z" stroke="#3a414a" stroke-width=".05" fill="#3a414a"/><path d="M-360 599.23l-12.92 7.64V591.6z" stroke="#3a414a" stroke-width="3" fill="#3a414a"/><path d="M-248.6 1115.7a6 6 0 0 1 6-6h155.12a6 6 0 0 1 6 6v94.62a6 6 0 0 1-6 6H-242.6a6 6 0 0 1-6-6z" stroke="#3a414a" stroke-width="3" fill="#fff"/><use xlink:href="#l" transform="matrix(1,0,0,1,-240.24355275917026,1115.037784033466) translate(7.069444444444457 53.8)"/><use xlink:href="#m" transform="matrix(1,0,0,1,-240.24355275917026,1115.037784033466) translate(86.36944444444444 53.8)"/><path d="M-192.95 1281.9a6 6 0 0 1 6-6h237.5a6 6 0 0 1 6 6v121.33a6 6 0 0 1-6 6h-237.5a6 6 0 0 1-6-6z" stroke="#3a414a" stroke-width="3" fill="#fff"/><use xlink:href="#n" transform="matrix(1,0,0,1,-180.4736298117381,1282.5744338198717) translate(25.97777777777779 65.8)"/><use xlink:href="#o" transform="matrix(1,0,0,1,-180.4736298117381,1282.5744338198717) translate(129.76111111111112 65.8)"/><path d="M-164.94 1219.3l.04.37.1.6.15.6.17.58.2.6.26.6.28.6.34.63.38.64.45.67.52.68.6.72.72.77.85.82 1 .87 1.23.96 1.5 1.06 1.87 1.17 2.4 1.36 3.24 1.6 4.56 1.96 7.26 2.68 47.66 15.16 4.56 1.97 3.22 1.6 2.4 1.35 1.9 1.2 1.5 1.04 1.2.95 1.02.88.6.58" stroke="#3a414a" stroke-width="3" stroke-linejoin="round" fill="none"/><path d="M-163.53 1219.32l-2.95.07-.04-1.58h2.95z" stroke="#3a414a" stroke-width=".05" fill="#3a414a"/><path d="M-69.74 1271.9l-13.25-7.04 13.04-7.96z" stroke="#3a414a" stroke-width="3" fill="#3a414a"/><path d="M-1360 206a6 6 0 0 1 6-6h155.12a6 6 0 0 1 6 6v126.67a6 6 0 0 1-6 6H-1354a6 6 0 0 1-6-6z" stroke="#3a414a" stroke-width="3" fill="#fff"/><use xlink:href="#p" transform="matrix(1,0,0,1,-1351.644202728405,206.93333333333337) translate(28.59166666666667 24.70625)"/><use xlink:href="#q" transform="matrix(1,0,0,1,-1351.644202728405,206.93333333333337) translate(32.961111111111116 55.90625)"/><use xlink:href="#r" transform="matrix(1,0,0,1,-1351.644202728405,206.93333333333337) translate(4.144444444444446 87.10625)"/><use xlink:href="#s" transform="matrix(1,0,0,1,-1351.644202728405,206.93333333333337) translate(108 87.10625)"/><use xlink:href="#t" transform="matrix(1,0,0,1,-1351.644202728405,206.93333333333337) translate(29.35000000000001 118.30625)"/><path d="M-1661.13 559.93a6 6 0 0 1 6-6H-1500a6 6 0 0 1 6 6v94.6a6 6 0 0 1-6 6h-155.13a6 6 0 0 1-6-6z" stroke="#3a414a" stroke-width="3" fill="#fff"/><use xlink:href="#u" transform="matrix(1,0,0,1,-1652.774044258076,559.26215531607) translate(36.57222222222223 53.8)"/><path d="M-1577.54 550.93l.45-21.38 1.42-22.43 2.27-21.63 3.02-20.6 3.7-19.35 4.22-18.06 4.67-16.74 5.02-15.43 5.27-14.18 5.46-13.02 5.62-11.94 5.72-10.96 5.8-10.04 5.84-9.2 5.88-8.48 5.9-7.8 5.94-7.16 5.95-6.6 5.98-6.1 6-5.64 6.02-5.2 6.06-4.8 6.12-4.45 6.16-4.1 6.24-3.78 6.32-3.48 6.42-3.2 6.54-2.9 6.66-2.64 6.82-2.37 7-2.1 7.17-1.84 7.42-1.58 7.66-1.3 7.95-1 8.27-.7 2-.07" stroke="#3a414a" stroke-width="3" stroke-linejoin="round" fill="none"/><path d="M-1576.07 550.92l-.03 1.5h-2.95l.04-1.56z" stroke="#3a414a" stroke-width=".05" fill="#3a414a"/><path d="M-1364.44 238.5l-12.62 8.1-.57-15.25z" stroke="#3a414a" stroke-width="3" fill="#3a414a"/><path d="M-1320 559.93a6 6 0 0 1 6-6h155.12a6 6 0 0 1 6 6v94.6a6 6 0 0 1-6 6H-1314a6 6 0 0 1-6-6z" stroke="#3a414a" stroke-width="3" fill="#fff"/><use xlink:href="#v" transform="matrix(1,0,0,1,-1311.644202728405,559.26215531607) translate(36.06666666666667 38.8)"/><use xlink:href="#w" transform="matrix(1,0,0,1,-1311.644202728405,559.26215531607) translate(93.26666666666667 38.8)"/><use xlink:href="#x" transform="matrix(1,0,0,1,-1311.644202728405,559.26215531607) translate(6.166666666666657 70)"/><use xlink:href="#k" transform="matrix(1,0,0,1,-1311.644202728405,559.26215531607) translate(88.5 70)"/><path d="M-1491 607.24h158.4" stroke="#3a414a" stroke-width="3" stroke-linejoin="round" fill="none"/><path d="M-1490.97 608.7h-1.54v-2.94h1.53z" stroke="#3a414a" stroke-width=".05" fill="#3a414a"/><path d="M-1324.45 607.24l-12.9 7.63V599.6z" stroke="#3a414a" stroke-width="3" fill="#3a414a"/><path d="M-1520 526a6 6 0 0 1 6-6h228a6 6 0 0 1 6 6v78.93a6 6 0 0 1-6 6h-228a6 6 0 0 1-6-6z" stroke="#000" stroke-opacity="0" stroke-width="3" fill="#fff" fill-opacity="0"/><use xlink:href="#y" transform="matrix(1,0,0,1,-1515,525) translate(65.22222222222223 21.81597222222222)"/><use xlink:href="#z" transform="matrix(1,0,0,1,-1515,525) translate(80.97530864197532 21.81597222222222)"/><use xlink:href="#A" transform="matrix(1,0,0,1,-1515,525) translate(72.08641975308642 43.14930555555556)"/><use xlink:href="#B" transform="matrix(1,0,0,1,-1515,525) translate(77.02469135802468 43.14930555555556)"/><use xlink:href="#A" transform="matrix(1,0,0,1,-1515,525) translate(74.11111111111111 64.4826388888889)"/><use xlink:href="#C" transform="matrix(1,0,0,1,-1515,525) translate(79.0493827160494 64.4826388888889)"/><use xlink:href="#D" transform="matrix(1,0,0,1,-1515,525) translate(104.67901234567901 64.4826388888889)"/><path d="M-720.93 588.33l9.24.2 8.66.53 7.32.76 6.5.96 6.16 1.18 6.36 1.5 8.58 2.4 20.88 6.23 6.37 1.48 6.15 1.18 6.5.96 7.33.76 8.3.52" stroke="#3a414a" stroke-width="3" stroke-linejoin="round" fill="none"/><path d="M-720.86 586.86l-.06 2.95-1.7-.02.1-.36.1-1.12-.1-1.1-.12-.38z" stroke="#3a414a" stroke-width=".05" fill="#3a414a"/><path d="M-604.45 607.14l-13.14 7.22.5-15.26z" stroke="#3a414a" stroke-width="3" fill="#3a414a"/><path d="M-1149.88 607.2l15.15-.3 12.86-.8 10.7-1.12 9.74-1.43 10.2-1.95 42.7-9.6 9.74-1.45 10.72-1.12 12.85-.8 5.55-.1" stroke="#3a414a" stroke-width="3" stroke-linejoin="round" fill="none"/><path d="M-1149.8 608.68l-1.58.03v-2.94l1.5-.03z" stroke="#3a414a" stroke-width=".05" fill="#3a414a"/><path d="M-1001.5 588.36l-12.77 7.9-.3-15.27z" stroke="#3a414a" stroke-width="3" fill="#3a414a"/><path d="M-2149.1 566a6 6 0 0 1 6-6h155.12a6 6 0 0 1 6 6v94.6a6 6 0 0 1-6 6h-155.12a6 6 0 0 1-6-6z" stroke="#3a414a" stroke-width="3" fill="#fff"/><use xlink:href="#E" transform="matrix(1,0,0,1,-2140.743748063365,565.3304223973969) translate(6.997222222222234 38.8)"/><use xlink:href="#F" transform="matrix(1,0,0,1,-2140.743748063365,565.3304223973969) translate(97.85277777777779 38.8)"/><use xlink:href="#G" transform="matrix(1,0,0,1,-2140.743748063365,565.3304223973969) translate(19.925000000000004 70)"/><use xlink:href="#H" transform="matrix(1,0,0,1,-2140.743748063365,565.3304223973969) translate(90.63055555555556 70)"/><path d="M-1905.12 559.93a6 6 0 0 1 6-6H-1744a6 6 0 0 1 6 6v94.6a6 6 0 0 1-6 6h-155.12a6 6 0 0 1-6-6z" stroke="#3a414a" stroke-width="3" fill="#fff"/><use xlink:href="#I" transform="matrix(1,0,0,1,-1896.7588961607205,559.26215531607) translate(31.444444444444443 23.8)"/><use xlink:href="#J" transform="matrix(1,0,0,1,-1896.7588961607205,559.26215531607) translate(30.830555555555563 55)"/><use xlink:href="#K" transform="matrix(1,0,0,1,-1896.7588961607205,559.26215531607) translate(32.275000000000006 86.2)"/><use xlink:href="#L" transform="matrix(1,0,0,1,-1896.7588961607205,559.26215531607) translate(69.75833333333333 86.2)"/><path d="M-2248.08 613.3h86.37" stroke="#3a414a" stroke-width="3" stroke-linejoin="round" fill="none"/><path d="M-2248.04 614.78h-1.54v-2.95h1.54z" stroke="#3a414a" stroke-width=".05" fill="#3a414a"/><path d="M-2153.55 613.3l-12.9 7.64v-15.27z" stroke="#3a414a" stroke-width="3" fill="#3a414a"/><path d="M-1978.98 613.3h61.26" stroke="#3a414a" stroke-width="3" stroke-linejoin="round" fill="none"/><path d="M-1978.94 614.78h-1.54v-2.95h1.54z" stroke="#3a414a" stroke-width=".05" fill="#3a414a"/><path d="M-1909.56 613.3l-12.9 7.64v-15.27z" stroke="#3a414a" stroke-width="3" fill="#3a414a"/><path d="M-1735 607.24h61.26" stroke="#3a414a" stroke-width="3" stroke-linejoin="round" fill="none"/><path d="M-1734.96 608.7h-1.54v-2.94h1.54z" stroke="#3a414a" stroke-width=".05" fill="#3a414a"/><path d="M-1665.58 607.24l-12.9 7.63V599.6z" stroke="#3a414a" stroke-width="3" fill="#3a414a"/><path d="M-68.24 1412.23v.3l-.1 1.73-.2 1.7-.24 1.67-.3 1.63-.4 1.62-.44 1.6-.52 1.6-.6 1.6-.66 1.6-.76 1.62-.86 1.63-.96 1.66-1.07 1.7-1.2 1.73-1.37 1.8-1.53 1.84-1.74 1.93-1.98 2.02-2.27 2.14-2.63 2.27-3.08 2.43-3.65 2.65-4.4 2.93-5.44 3.28-6.95 3.82-9.44 4.68-14.8 6.56-71.83 29.27-9.45 4.68-6.95 3.82-5.43 3.28-4.4 2.92-3.64 2.65-3.08 2.44-2.63 2.28-2.28 2.13-1.98 2.03-1.75 1.93-1.53 1.86-1.36 1.8-1.2 1.72-1.1 1.7-.95 1.66-.84 1.63-.76 1.62-.68 1.6-.6 1.6-.5 1.6-.23.77" stroke="#3a414a" stroke-width="3" stroke-linejoin="round" fill="none"/><path d="M-66.76 1412.3l-2.95-.06.02-1.5h2.95z" stroke="#3a414a" stroke-width=".05" fill="#3a414a"/><path d="M-259.96 1557l-5.16-14.1 15.02 2.8z" stroke="#3a414a" stroke-width="3" fill="#3a414a"/><path d="M-479.3 1668.28l-363.42-6.96-246.9-15.28-189.5-19.76-152.56-22.43-126.23-24-106.48-24.9-91.13-25.4-78.94-25.62-69.05-25.65-60.92-25.58-54.17-25.47-48.48-25.33-43.65-25.2-39.5-25.04-35.93-24.96-32.8-24.9-30.08-24.87-27.66-24.9-25.52-24.97-23.6-25.12-21.84-25.3-20.27-25.6-18.83-25.9-17.5-26.32-16.24-26.82-15.06-27.4-13.94-28.08-12.85-28.87-11.8-29.78-10.72-30.82-9.66-32-8.56-33.35-7.4-34.9-6.2-36.64-4.87-38.66-3.43-40.95-1.8-43.57-.14-11.78" stroke="#3a414a" stroke-width="3" stroke-linejoin="round" fill="none"/><path d="M-477.5 1666.83l-.17.5-.1.97.1 1 .17.5-1.87-.05.05-2.95z" stroke="#3a414a" stroke-width=".05" fill="#3a414a"/><path d="M-2527.02 647.04l7.77 12.83-15.27.16z" stroke="#3a414a" stroke-width="3" fill="#3a414a"/><path d="M280 886.4a6 6 0 0 1 6-6h237.5a6 6 0 0 1 6 6v161.34a6 6 0 0 1-6 6H286a6 6 0 0 1-6-6z" stroke="#3a414a" stroke-width="3" fill="#fff"/><use xlink:href="#M" transform="matrix(1,0,0,1,292.47428685492844,889.0698389961134) translate(29.841666666666683 20.8)"/><use xlink:href="#N" transform="matrix(1,0,0,1,292.47428685492844,889.0698389961134) translate(116.43611111111112 20.8)"/><use xlink:href="#O" transform="matrix(1,0,0,1,292.47428685492844,889.0698389961134) translate(179.99166666666667 20.8)"/><use xlink:href="#P" transform="matrix(1,0,0,1,292.47428685492844,889.0698389961134) translate(64.25555555555556 52)"/><use xlink:href="#Q" transform="matrix(1,0,0,1,292.47428685492844,889.0698389961134) translate(126.14999999999999 52)"/><use xlink:href="#R" transform="matrix(1,0,0,1,292.47428685492844,889.0698389961134) translate(112.5 83.2)"/><use xlink:href="#S" transform="matrix(1,0,0,1,292.47428685492844,889.0698389961134) translate(4.275000000000006 114.4)"/><use xlink:href="#j" transform="matrix(1,0,0,1,292.47428685492844,889.0698389961134) translate(113.98055555555555 114.4)"/><use xlink:href="#h" transform="matrix(1,0,0,1,292.47428685492844,889.0698389961134) translate(164.39166666666665 114.4)"/><use xlink:href="#T" transform="matrix(1,0,0,1,292.47428685492844,889.0698389961134) translate(80.75833333333334 145.60000000000002)"/><path d="M-185.45 599.26l28.48.4 9.95.72 7.15.88 5.75 1 4.9 1.1 4.33 1.2 3.92 1.3 3.6 1.4 3.4 1.5 3.2 1.6 3.08 1.76 3 1.9 2.93 2.08 2.9 2.27 2.9 2.5 2.9 2.8.42.43" stroke="#3a414a" stroke-width="3" stroke-linejoin="round" fill="none"/><path d="M-185.4 597.78l-.03 2.95-1.52-.02v-2.94z" stroke="#3a414a" stroke-width=".05" fill="#3a414a"/><path d="M-87.34 630.3l-14.34-4.42 11.3-10.27z" stroke="#3a414a" stroke-width="3" fill="#3a414a"/><path d="M-20.53 801.58l-.17 8.38-.58 9.13-.9 8.48-1.16 7.97-1.44 7.55-1.7 7.2-1.92 6.92-2.18 6.7-2.44 6.58-2.73 6.47-3.04 6.47-3.4 6.53-3.87 6.7-4.45 7-5.24 7.53-6.46 8.5-8.74 10.54-52.37 58.35-6.45 8.48-5.24 7.53-4.45 7.02-3.87 6.7-3.4 6.52-3.05 6.47-2.72 6.5-2.44 6.55-2.18 6.7-1.93 6.93-1.7 7.2-1.43 7.55-1.17 7.97-.9 8.5-.5 7.9" stroke="#3a414a" stroke-width="3" stroke-linejoin="round" fill="none"/><path d="M-19.06 801.64l-2.95-.06.03-1.64.25.05 1.22.07 1.2-.08.28-.06z" stroke="#3a414a" stroke-width=".05" fill="#3a414a"/><path d="M-164.94 1105.26l-7.18-13.17 15.26.53z" stroke="#3a414a" stroke-width="3" fill="#3a414a"/><path d="M-41.7 1668.27l18.7-.4 19.5-1.2 18.9-2 18.33-2.7 17.84-3.4 17.38-4.08 16.98-4.75 16.62-5.4 16.3-6.06 16-6.74 15.73-7.4 15.5-8.1 15.3-8.84 15.1-9.58 14.9-10.37 14.75-11.2 14.58-12.06 14.43-12.97 14.24-13.95 14.07-15 13.87-16.06 13.66-17.23 13.4-18.46 13.1-19.72 12.75-21.06 12.34-22.44 11.85-23.88 11.26-25.33 10.6-26.77 9.83-28.24 8.93-29.64 7.95-30.94 6.83-32.16 5.62-33.2 4.3-34.1 2.92-34.76 1.47-35.2.08-6.56" stroke="#3a414a" stroke-width="3" stroke-linejoin="round" fill="none"/><path d="M-41.64 1669.75l-1.86.04.17-.5.1-1-.1-.98-.17-.5 1.8-.02z" stroke="#3a414a" stroke-width=".05" fill="#3a414a"/><path d="M444.27 1058.18l7.5 13-15.27-.17z" stroke="#3a414a" stroke-width="3" fill="#3a414a"/><path d="M404.7 877.4l-.12-6.15-.45-7.3-.74-6.97-1-6.68-1.22-6.44-1.46-6.22-1.68-6.03-1.9-5.84-2.13-5.7-2.33-5.58-2.57-5.47-2.8-5.36-3.06-5.28-3.3-5.22-3.6-5.16-3.88-5.12-4.2-5.08-4.56-5.05-4.93-5.04-5.36-5.03-5.8-5.02-6.33-5.02-6.9-5-7.54-5-8.25-5-9.05-4.98-9.95-4.93-10.94-4.87-12.06-4.77-13.3-4.63-14.65-4.42-16.13-4.13-17.68-3.75-19.26-3.26-20.8-2.63-22.16-1.86-23.2-.96h-.72" stroke="#3a414a" stroke-width="3" stroke-linejoin="round" fill="none"/><path d="M406.22 878.9h-2.95l-.03-1.5 2.95-.07z" stroke="#3a414a" stroke-width=".05" fill="#3a414a"/><path d="M120.52 692.37l13.03-7.4-.26 15.26z" stroke="#3a414a" stroke-width="3" fill="#3a414a"/><path d="M-767.12-107.36a6 6 0 0 1 6-6H-606a6 6 0 0 1 6 6V53.97a6 6 0 0 1-6 6h-155.12a6 6 0 0 1-6-6z" stroke="#3a414a" stroke-width="3" fill="#fff"/><g><use xlink:href="#U" transform="matrix(1,0,0,1,-758.7601481603065,-104.69577602603142) translate(11.330555555555563 20.8)"/><use xlink:href="#V" transform="matrix(1,0,0,1,-758.7601481603065,-104.69577602603142) translate(76.18611111111112 20.8)"/><use xlink:href="#W" transform="matrix(1,0,0,1,-758.7601481603065,-104.69577602603142) translate(89.1138888888889 20.8)"/><use xlink:href="#X" transform="matrix(1,0,0,1,-758.7601481603065,-104.69577602603142) translate(22.055555555555557 52)"/><use xlink:href="#Y" transform="matrix(1,0,0,1,-758.7601481603065,-104.69577602603142) translate(85.61111111111111 52)"/><use xlink:href="#Z" transform="matrix(1,0,0,1,-758.7601481603065,-104.69577602603142) translate(24.29444444444445 83.2)"/><use xlink:href="#aa" transform="matrix(1,0,0,1,-758.7601481603065,-104.69577602603142) translate(15.013888888888893 114.4)"/><use xlink:href="#ab" transform="matrix(1,0,0,1,-758.7601481603065,-104.69577602603142) translate(64.125 114.4)"/><use xlink:href="#ac" transform="matrix(1,0,0,1,-758.7601481603065,-104.69577602603142) translate(98.64722222222221 114.4)"/><use xlink:href="#ad" transform="matrix(1,0,0,1,-758.7601481603065,-104.69577602603142) translate(29.386111111111113 145.60000000000002)"/></g><path d="M-20.53 583.06l-.58-27.75-1.82-28.78-2.98-28.32-4.1-27.82-5.2-27.3-6.28-26.72-7.3-26.14-8.28-25.5-9.25-24.88-10.18-24.18-11.04-23.47-11.9-22.75-12.68-22-13.46-21.2-14.18-20.4-14.87-19.6-15.53-18.76-16.15-17.94-16.73-17.08-17.3-16.24-17.8-15.38-18.33-14.52-18.8-13.66-19.28-12.8-19.73-11.95-20.16-11.08-20.58-10.22-21.02-9.36-21.45-8.5-21.88-7.6-22.32-6.75-22.77-5.84-23.23-4.94-23.72-4-24.22-3.07-24.73-2.07-25.3-1.06-1.76-.02" stroke="#3a414a" stroke-width="3" stroke-linejoin="round" fill="none"/><path d="M-19.02 584.7l-.27-.05-1.2-.08-1.2.08-.27.05-.04-1.65 2.94-.06z" stroke="#3a414a" stroke-width=".05" fill="#3a414a"/><path d="M-595.55-26.65l13.02-7.44-.23 15.28z" stroke="#3a414a" stroke-width="3" fill="#3a414a"/><path d="M-770.14-26.7l-838.42-5.6-135 8.34-100.6 10.48-79.76 11.72-65.6 12.47-55.24 12.94-47.4 13.2-41.23 13.4-36.27 13.47-32.24 13.54-28.9 13.58-26.05 13.62-23.66 13.66-21.63 13.7-19.83 13.78-18.3 13.88-16.9 14-15.72 14.14-14.64 14.33-13.67 14.56-12.8 14.8-11.98 15.14-11.26 15.5-10.57 15.9-9.93 16.4-9.3 16.93-8.73 17.56-8.13 18.26-7.54 19.07-6.96 20-6.35 21.04-5.7 22.25-5.03 23.6-4.25 25.2-3.4 26.98-2.44 29.08-1.3 31.52-.07 5.7" stroke="#3a414a" stroke-width="3" stroke-linejoin="round" fill="none"/><path d="M-768.62-28.17v2.95h-1.57l.03-2.96z" stroke="#3a414a" stroke-width=".05" fill="#3a414a"/><path d="M-2527.02 579.57l-7.5-13 15.27.17z" stroke="#3a414a" stroke-width="3" fill="#3a414a"/><path d="M-860.53 697.57l-.2 10-.7 11.14-1.15 10.8-1.55 10.52-1.95 10.26-2.36 10.04-2.75 9.86-3.14 9.7-3.57 9.58-4 9.47-4.4 9.4-4.9 9.32-5.36 9.3-5.9 9.3-6.45 9.28-7.08 9.3-7.74 9.35-8.46 9.4-9.27 9.46-10.16 9.53-11.15 9.62-12.24 9.68-13.45 9.77-14.82 9.85-16.35 9.9-18.04 9.9-19.94 9.9-22.03 9.8-24.32 9.6-26.84 9.35-29.5 8.9-32.34 8.3-35.2 7.46-38.04 6.43-40.64 5.13-42.88 3.6-44.55 1.85h-45.52l-45.67-1.9-45-3.8-43.55-5.5-41.5-7-38.97-8.28-36.2-9.3-33.34-10.04-30.46-10.6-27.7-10.96-25.1-11.17-22.7-11.27-20.53-11.27-18.54-11.22-16.76-11.13-15.16-11-13.72-10.88-12.44-10.73-11.28-10.6-10.25-10.46-9.3-10.33-8.47-10.23-7.7-10.13-7-10.08-6.34-10-5.75-9.97-5.22-9.95-4.68-9.96-4.2-10-3.74-10.03-3.3-10.12-2.84-10.23-2.43-10.36-2.02-10.54-1.58-10.73-1.15-10.96-.7-11.23-.02-.42" stroke="#3a414a" stroke-width="3" stroke-linejoin="round" fill="none"/><path d="M-859.06 697.64l-2.95-.06.03-1.66.25.06 1.22.07 1.22-.07.26-.06z" stroke="#3a414a" stroke-width=".05" fill="#3a414a"/><path d="M-2024.9 671.05l8.02 12.68-15.27.46z" stroke="#3a414a" stroke-width="3" fill="#3a414a"/><path d="M-865.24 483.68a7.73 7.73 0 0 1 9.48 0l130.02 100.94a4.66 4.66 0 0 1 0 7.36l-130.02 100.95a7.73 7.73 0 0 1-9.48 0l-130.02-100.95a4.66 4.66 0 0 1 0-7.36z" stroke="#3a414a" stroke-width="3" fill="#fff"/><g><use xlink:href="#ae" transform="matrix(1,0,0,1,-995,485) translate(67.33833333333334 79.01875)"/><use xlink:href="#af" transform="matrix(1,0,0,1,-995,485) translate(143.89388888888888 79.01875)"/><use xlink:href="#ag" transform="matrix(1,0,0,1,-995,485) translate(47.91055555555556 110.21875)"/><use xlink:href="#ah" transform="matrix(1,0,0,1,-995,485) translate(123.02166666666668 110.21875)"/><use xlink:href="#ai" transform="matrix(1,0,0,1,-995,485) translate(160.505 110.21875)"/><use xlink:href="#aj" transform="matrix(1,0,0,1,-995,485) translate(84.05777777777777 141.41875000000002)"/></g><path d="M-25.24 587.7a7.73 7.73 0 0 1 9.48 0l130.02 100.94a4.66 4.66 0 0 1 0 7.36L-15.76 796.95a7.73 7.73 0 0 1-9.48 0L-155.26 696a4.66 4.66 0 0 1 0-7.36z" stroke="#3a414a" stroke-width="3" fill="#fff"/><g><use xlink:href="#ae" transform="matrix(1,0,0,1,-155,589.0171869369314) translate(29.782777777777792 111.3625)"/><use xlink:href="#ak" transform="matrix(1,0,0,1,-155,589.0171869369314) translate(106.33833333333334 111.3625)"/><use xlink:href="#al" transform="matrix(1,0,0,1,-155,589.0171869369314) translate(171.3383333333333 111.3625)"/></g><path d="M-265.88 1562.65a12.16 12.16 0 0 1 10.76 0l208.74 103a2.96 2.96 0 0 1 0 5.3l-208.74 103a12.16 12.16 0 0 1-10.76 0l-208.74-103a2.96 2.96 0 0 1 0-5.3z" stroke="#3a414a" stroke-width="3" fill="#fff"/><g><use xlink:href="#am" transform="matrix(1,0,0,1,-475,1565) translate(104.87166666666668 79.01875)"/><use xlink:href="#an" transform="matrix(1,0,0,1,-475,1565) translate(226.06055555555554 79.01875)"/><use xlink:href="#ao" transform="matrix(1,0,0,1,-475,1565) translate(214.505 110.21875)"/><use xlink:href="#ap" transform="matrix(1,0,0,1,-475,1565) translate(148.06055555555554 141.41875000000002)"/></g><defs><path d="M30-248c87 1 191-15 191 75 0 78-77 80-158 76V0H30v-248zm33 125c57 0 124 11 124-50 0-59-68-47-124-48v98" id="aq"/><path d="M24-231v-30h32v30H24zM24 0v-190h32V0H24" id="ar"/><path d="M96-169c-40 0-48 33-48 73s9 75 48 75c24 0 41-14 43-38l32 2c-6 37-31 61-74 61-59 0-76-41-82-99-10-93 101-131 147-64 4 7 5 14 7 22l-32 3c-4-21-16-35-41-35" id="as"/><path d="M100-194c62-1 85 37 85 99 1 63-27 99-86 99S16-35 15-95c0-66 28-99 85-99zM99-20c44 1 53-31 53-75 0-43-8-75-51-75s-53 32-53 75 10 74 51 75" id="at"/><path d="M108 0H70L1-190h34L89-25l56-165h34" id="au"/><path d="M100-194c63 0 86 42 84 106H49c0 40 14 67 53 68 26 1 43-12 49-29l28 8c-11 28-37 45-77 45C44 4 14-33 15-96c1-61 26-98 85-98zm52 81c6-60-76-77-97-28-3 7-6 17-6 28h103" id="av"/><g id="a"><use transform="matrix(0.07222222222222222,0,0,0.07222222222222222,0,0)" xlink:href="#aq"/><use transform="matrix(0.07222222222222222,0,0,0.07222222222222222,17.333333333333332,0)" xlink:href="#ar"/><use transform="matrix(0.07222222222222222,0,0,0.07222222222222222,23.038888888888888,0)" xlink:href="#as"/><use transform="matrix(0.07222222222222222,0,0,0.07222222222222222,36.038888888888884,0)" xlink:href="#at"/><use transform="matrix(0.07222222222222222,0,0,0.07222222222222222,50.48333333333333,0)" xlink:href="#au"/><use transform="matrix(0.07222222222222222,0,0,0.07222222222222222,63.48333333333333,0)" xlink:href="#at"/><use transform="matrix(0.07222222222222222,0,0,0.07222222222222222,77.92777777777778,0)" xlink:href="#ar"/><use transform="matrix(0.07222222222222222,0,0,0.07222222222222222,83.63333333333333,0)" xlink:href="#as"/><use transform="matrix(0.07222222222222222,0,0,0.07222222222222222,96.63333333333333,0)" xlink:href="#av"/></g><path d="M266 0h-40l-56-210L115 0H75L2-248h35L96-30l15-64 43-154h32l59 218 59-218h35" id="aw"/><path d="M141-36C126-15 110 5 73 4 37 3 15-17 15-53c-1-64 63-63 125-63 3-35-9-54-41-54-24 1-41 7-42 31l-33-3c5-37 33-52 76-52 45 0 72 20 72 64v82c-1 20 7 32 28 27v20c-31 9-61-2-59-35zM48-53c0 20 12 33 32 33 41-3 63-29 60-74-43 2-92-5-92 41" id="ax"/><path d="M143 0L79-87 56-68V0H24v-261h32v163l83-92h37l-77 82L181 0h-38" id="ay"/><g id="b"><use transform="matrix(0.07222222222222222,0,0,0.07222222222222222,0,0)" xlink:href="#aw"/><use transform="matrix(0.07222222222222222,0,0,0.07222222222222222,23.54444444444444,0)" xlink:href="#ax"/><use transform="matrix(0.07222222222222222,0,0,0.07222222222222222,37.98888888888888,0)" xlink:href="#ay"/><use transform="matrix(0.07222222222222222,0,0,0.07222222222222222,50.98888888888889,0)" xlink:href="#av"/></g><path d="M206 0h-36l-40-164L89 0H53L-1-190h32L70-26l43-164h34l41 164 42-164h31" id="az"/><path d="M114-163C36-179 61-72 57 0H25l-1-190h30c1 12-1 29 2 39 6-27 23-49 58-41v29" id="aA"/><path d="M85-194c31 0 48 13 60 33l-1-100h32l1 261h-30c-2-10 0-23-3-31C134-8 116 4 85 4 32 4 16-35 15-94c0-66 23-100 70-100zm9 24c-40 0-46 34-46 75 0 40 6 74 45 74 42 0 51-32 51-76 0-42-9-74-50-73" id="aB"/><g id="c"><use transform="matrix(0.07222222222222222,0,0,0.07222222222222222,0,0)" xlink:href="#az"/><use transform="matrix(0.07222222222222222,0,0,0.07222222222222222,18.705555555555552,0)" xlink:href="#at"/><use transform="matrix(0.07222222222222222,0,0,0.07222222222222222,33.14999999999999,0)" xlink:href="#aA"/><use transform="matrix(0.07222222222222222,0,0,0.07222222222222222,41.74444444444443,0)" xlink:href="#aB"/></g><path d="M233-177c-1 41-23 64-60 70L243 0h-38l-65-103H63V0H30v-248c88 3 205-21 203 71zM63-129c60-2 137 13 137-47 0-61-80-42-137-45v92" id="aC"/><path d="M205 0l-28-72H64L36 0H1l101-248h38L239 0h-34zm-38-99l-47-123c-12 45-31 82-46 123h93" id="aD"/><path d="M143 4C61 4 22-44 18-125c-5-107 100-154 193-111 17 8 29 25 37 43l-32 9c-13-25-37-40-76-40-61 0-88 39-88 99 0 61 29 100 91 101 35 0 62-11 79-27v-45h-74v-28h105v86C228-13 192 4 143 4" id="aE"/><g id="d"><use transform="matrix(0.07222222222222222,0,0,0.07222222222222222,0,0)" xlink:href="#aC"/><use transform="matrix(0.07222222222222222,0,0,0.07222222222222222,18.705555555555552,0)" xlink:href="#aD"/><use transform="matrix(0.07222222222222222,0,0,0.07222222222222222,36.038888888888884,0)" xlink:href="#aE"/></g><path d="M9 0v-24l116-142H16v-24h144v24L44-24h123V0H9" id="aF"/><path d="M135-143c-3-34-86-38-87 0 15 53 115 12 119 90S17 21 10-45l28-5c4 36 97 45 98 0-10-56-113-15-118-90-4-57 82-63 122-42 12 7 21 19 24 35" id="aG"/><path d="M106-169C34-169 62-67 57 0H25v-261h32l-1 103c12-21 28-36 61-36 89 0 53 116 60 194h-32v-121c2-32-8-49-39-48" id="aH"/><g id="e"><use transform="matrix(0.07222222222222222,0,0,0.07222222222222222,0,0)" xlink:href="#aF"/><use transform="matrix(0.07222222222222222,0,0,0.07222222222222222,12.999999999999998,0)" xlink:href="#aG"/><use transform="matrix(0.07222222222222222,0,0,0.07222222222222222,25.999999999999996,0)" xlink:href="#aH"/></g><path d="M59-47c-2 24 18 29 38 22v24C64 9 27 4 27-40v-127H5v-23h24l9-43h21v43h35v23H59v120" id="aI"/><path d="M179-190L93 31C79 59 56 82 12 73V49c39 6 53-20 64-50L1-190h34L92-34l54-156h33" id="aJ"/><g id="f"><use transform="matrix(0.07222222222222222,0,0,0.07222222222222222,0,0)" xlink:href="#aH"/><use transform="matrix(0.07222222222222222,0,0,0.07222222222222222,14.444444444444443,0)" xlink:href="#ar"/><use transform="matrix(0.07222222222222222,0,0,0.07222222222222222,20.15,0)" xlink:href="#aG"/><use transform="matrix(0.07222222222222222,0,0,0.07222222222222222,33.15,0)" xlink:href="#aI"/><use transform="matrix(0.07222222222222222,0,0,0.07222222222222222,40.37222222222222,0)" xlink:href="#at"/><use transform="matrix(0.07222222222222222,0,0,0.07222222222222222,54.81666666666666,0)" xlink:href="#aA"/><use transform="matrix(0.07222222222222222,0,0,0.07222222222222222,63.411111111111104,0)" xlink:href="#aJ"/></g><g id="g"><use transform="matrix(0.07222222222222222,0,0,0.07222222222222222,0,0)" xlink:href="#aq"/><use transform="matrix(0.07222222222222222,0,0,0.07222222222222222,17.333333333333332,0)" xlink:href="#at"/><use transform="matrix(0.07222222222222222,0,0,0.07222222222222222,31.777777777777775,0)" xlink:href="#aI"/><use transform="matrix(0.07222222222222222,0,0,0.07222222222222222,38.99999999999999,0)" xlink:href="#ax"/><use transform="matrix(0.07222222222222222,0,0,0.07222222222222222,53.44444444444444,0)" xlink:href="#aI"/><use transform="matrix(0.07222222222222222,0,0,0.07222222222222222,60.666666666666664,0)" xlink:href="#at"/></g><path d="M115-194c53 0 69 39 70 98 0 66-23 100-70 100C84 3 66-7 56-30L54 0H23l1-261h32v101c10-23 28-34 59-34zm-8 174c40 0 45-34 45-75 0-40-5-75-45-74-42 0-51 32-51 76 0 43 10 73 51 73" id="aK"/><g id="h"><use transform="matrix(0.07222222222222222,0,0,0.07222222222222222,0,0)" xlink:href="#aK"/><use transform="matrix(0.07222222222222222,0,0,0.07222222222222222,14.444444444444443,0)" xlink:href="#ax"/><use transform="matrix(0.07222222222222222,0,0,0.07222222222222222,28.888888888888886,0)" xlink:href="#aG"/><use transform="matrix(0.07222222222222222,0,0,0.07222222222222222,41.888888888888886,0)" xlink:href="#aH"/></g><g id="i"><use transform="matrix(0.07222222222222222,0,0,0.07222222222222222,0,0)" xlink:href="#aI"/><use transform="matrix(0.07222222222222222,0,0,0.07222222222222222,7.222222222222221,0)" xlink:href="#at"/></g><path d="M24 0v-261h32V0H24" id="aL"/><g id="j"><use transform="matrix(0.07222222222222222,0,0,0.07222222222222222,0,0)" xlink:href="#aA"/><use transform="matrix(0.07222222222222222,0,0,0.07222222222222222,8.594444444444443,0)" xlink:href="#av"/><use transform="matrix(0.07222222222222222,0,0,0.07222222222222222,23.038888888888884,0)" xlink:href="#ax"/><use transform="matrix(0.07222222222222222,0,0,0.07222222222222222,37.48333333333333,0)" xlink:href="#aL"/></g><g id="k"><use transform="matrix(0.07222222222222222,0,0,0.07222222222222222,0,0)" xlink:href="#aK"/><use transform="matrix(0.07222222222222222,0,0,0.07222222222222222,14.444444444444443,0)" xlink:href="#ax"/><use transform="matrix(0.07222222222222222,0,0,0.07222222222222222,28.888888888888886,0)" xlink:href="#aG"/><use transform="matrix(0.07222222222222222,0,0,0.07222222222222222,41.888888888888886,0)" xlink:href="#aH"/></g><g id="l"><use transform="matrix(0.07222222222222222,0,0,0.07222222222222222,0,0)" xlink:href="#aG"/><use transform="matrix(0.07222222222222222,0,0,0.07222222222222222,12.999999999999998,0)" xlink:href="#az"/><use transform="matrix(0.07222222222222222,0,0,0.07222222222222222,31.70555555555555,0)" xlink:href="#ar"/><use transform="matrix(0.07222222222222222,0,0,0.07222222222222222,37.411111111111104,0)" xlink:href="#aI"/><use transform="matrix(0.07222222222222222,0,0,0.07222222222222222,44.633333333333326,0)" xlink:href="#as"/><use transform="matrix(0.07222222222222222,0,0,0.07222222222222222,57.633333333333326,0)" xlink:href="#aH"/></g><path d="M210-169c-67 3-38 105-44 169h-31v-121c0-29-5-50-35-48C34-165 62-65 56 0H25l-1-190h30c1 10-1 24 2 32 10-44 99-50 107 0 11-21 27-35 58-36 85-2 47 119 55 194h-31v-121c0-29-5-49-35-48" id="aM"/><g id="m"><use transform="matrix(0.07222222222222222,0,0,0.07222222222222222,0,0)" xlink:href="#ar"/><use transform="matrix(0.07222222222222222,0,0,0.07222222222222222,5.705555555555555,0)" xlink:href="#aI"/><use transform="matrix(0.07222222222222222,0,0,0.07222222222222222,12.927777777777777,0)" xlink:href="#av"/><use transform="matrix(0.07222222222222222,0,0,0.07222222222222222,27.37222222222222,0)" xlink:href="#aA"/><use transform="matrix(0.07222222222222222,0,0,0.07222222222222222,35.96666666666666,0)" xlink:href="#aM"/></g><path d="M84 4C-5 8 30-112 23-190h32v120c0 31 7 50 39 49 72-2 45-101 50-169h31l1 190h-30c-1-10 1-25-2-33-11 22-28 36-60 37" id="aN"/><g id="n"><use transform="matrix(0.07222222222222222,0,0,0.07222222222222222,0,0)" xlink:href="#aG"/><use transform="matrix(0.07222222222222222,0,0,0.07222222222222222,12.999999999999998,0)" xlink:href="#ar"/><use transform="matrix(0.07222222222222222,0,0,0.07222222222222222,18.705555555555552,0)" xlink:href="#aM"/><use transform="matrix(0.07222222222222222,0,0,0.07222222222222222,40.3,0)" xlink:href="#aN"/><use transform="matrix(0.07222222222222222,0,0,0.07222222222222222,54.74444444444444,0)" xlink:href="#aL"/><use transform="matrix(0.07222222222222222,0,0,0.07222222222222222,60.449999999999996,0)" xlink:href="#ax"/><use transform="matrix(0.07222222222222222,0,0,0.07222222222222222,74.89444444444446,0)" xlink:href="#aI"/><use transform="matrix(0.07222222222222222,0,0,0.07222222222222222,82.11666666666667,0)" xlink:href="#av"/></g><path d="M115-194c55 1 70 41 70 98S169 2 115 4C84 4 66-9 55-30l1 105H24l-1-265h31l2 30c10-21 28-34 59-34zm-8 174c40 0 45-34 45-75s-6-73-45-74c-42 0-51 32-51 76 0 43 10 73 51 73" id="aO"/><path d="M117-194c89-4 53 116 60 194h-32v-121c0-31-8-49-39-48C34-167 62-67 57 0H25l-1-190h30c1 10-1 24 2 32 11-22 29-35 61-36" id="aP"/><path d="M177-190C167-65 218 103 67 71c-23-6-38-20-44-43l32-5c15 47 100 32 89-28v-30C133-14 115 1 83 1 29 1 15-40 15-95c0-56 16-97 71-98 29-1 48 16 59 35 1-10 0-23 2-32h30zM94-22c36 0 50-32 50-73 0-42-14-75-50-75-39 0-46 34-46 75s6 73 46 73" id="aQ"/><g id="o"><use transform="matrix(0.07222222222222222,0,0,0.07222222222222222,0,0)" xlink:href="#aI"/><use transform="matrix(0.07222222222222222,0,0,0.07222222222222222,7.222222222222221,0)" xlink:href="#aJ"/><use transform="matrix(0.07222222222222222,0,0,0.07222222222222222,20.22222222222222,0)" xlink:href="#aO"/><use transform="matrix(0.07222222222222222,0,0,0.07222222222222222,34.666666666666664,0)" xlink:href="#ar"/><use transform="matrix(0.07222222222222222,0,0,0.07222222222222222,40.37222222222222,0)" xlink:href="#aP"/><use transform="matrix(0.07222222222222222,0,0,0.07222222222222222,54.81666666666666,0)" xlink:href="#aQ"/></g><g id="p"><use transform="matrix(0.07222222222222222,0,0,0.07222222222222222,0,0)" xlink:href="#aA"/><use transform="matrix(0.07222222222222222,0,0,0.07222222222222222,8.594444444444443,0)" xlink:href="#av"/><use transform="matrix(0.07222222222222222,0,0,0.07222222222222222,23.038888888888884,0)" xlink:href="#aG"/><use transform="matrix(0.07222222222222222,0,0,0.07222222222222222,36.038888888888884,0)" xlink:href="#aO"/><use transform="matrix(0.07222222222222222,0,0,0.07222222222222222,50.48333333333333,0)" xlink:href="#at"/><use transform="matrix(0.07222222222222222,0,0,0.07222222222222222,64.92777777777778,0)" xlink:href="#aP"/><use transform="matrix(0.07222222222222222,0,0,0.07222222222222222,79.37222222222222,0)" xlink:href="#aB"/></g><g id="q"><use transform="matrix(0.07222222222222222,0,0,0.07222222222222222,0,0)" xlink:href="#aQ"/><use transform="matrix(0.07222222222222222,0,0,0.07222222222222222,14.444444444444443,0)" xlink:href="#av"/><use transform="matrix(0.07222222222222222,0,0,0.07222222222222222,28.888888888888886,0)" xlink:href="#aP"/><use transform="matrix(0.07222222222222222,0,0,0.07222222222222222,43.33333333333333,0)" xlink:href="#av"/><use transform="matrix(0.07222222222222222,0,0,0.07222222222222222,57.77777777777777,0)" xlink:href="#aA"/><use transform="matrix(0.07222222222222222,0,0,0.07222222222222222,66.37222222222222,0)" xlink:href="#ar"/><use transform="matrix(0.07222222222222222,0,0,0.07222222222222222,72.07777777777777,0)" xlink:href="#as"/></g><g id="r"><use transform="matrix(0.07222222222222222,0,0,0.07222222222222222,0,0)" xlink:href="#ax"/><use transform="matrix(0.07222222222222222,0,0,0.07222222222222222,14.444444444444443,0)" xlink:href="#aP"/><use transform="matrix(0.07222222222222222,0,0,0.07222222222222222,28.888888888888886,0)" xlink:href="#aG"/><use transform="matrix(0.07222222222222222,0,0,0.07222222222222222,41.888888888888886,0)" xlink:href="#az"/><use transform="matrix(0.07222222222222222,0,0,0.07222222222222222,60.59444444444443,0)" xlink:href="#av"/><use transform="matrix(0.07222222222222222,0,0,0.07222222222222222,75.03888888888888,0)" xlink:href="#aA"/><use transform="matrix(0.07222222222222222,0,0,0.07222222222222222,83.63333333333333,0)" xlink:href="#aG"/></g><g id="s"><use transform="matrix(0.07222222222222222,0,0,0.07222222222222222,0,0)" xlink:href="#aL"/><use transform="matrix(0.07222222222222222,0,0,0.07222222222222222,5.705555555555555,0)" xlink:href="#ar"/><use transform="matrix(0.07222222222222222,0,0,0.07222222222222222,11.41111111111111,0)" xlink:href="#ay"/><use transform="matrix(0.07222222222222222,0,0,0.07222222222222222,24.411111111111108,0)" xlink:href="#av"/></g><g id="t"><use transform="matrix(0.07222222222222222,0,0,0.07222222222222222,0,0)" xlink:href="#az"/><use transform="matrix(0.07222222222222222,0,0,0.07222222222222222,18.705555555555552,0)" xlink:href="#av"/><use transform="matrix(0.07222222222222222,0,0,0.07222222222222222,33.14999999999999,0)" xlink:href="#ax"/><use transform="matrix(0.07222222222222222,0,0,0.07222222222222222,47.594444444444434,0)" xlink:href="#aI"/><use transform="matrix(0.07222222222222222,0,0,0.07222222222222222,54.816666666666656,0)" xlink:href="#aH"/><use transform="matrix(0.07222222222222222,0,0,0.07222222222222222,69.26111111111109,0)" xlink:href="#av"/><use transform="matrix(0.07222222222222222,0,0,0.07222222222222222,83.70555555555553,0)" xlink:href="#aA"/></g><g id="u"><use transform="matrix(0.07222222222222222,0,0,0.07222222222222222,0,0)" xlink:href="#aC"/><use transform="matrix(0.07222222222222222,0,0,0.07222222222222222,18.705555555555552,0)" xlink:href="#at"/><use transform="matrix(0.07222222222222222,0,0,0.07222222222222222,33.14999999999999,0)" xlink:href="#aN"/><use transform="matrix(0.07222222222222222,0,0,0.07222222222222222,47.594444444444434,0)" xlink:href="#aI"/><use transform="matrix(0.07222222222222222,0,0,0.07222222222222222,54.816666666666656,0)" xlink:href="#av"/><use transform="matrix(0.07222222222222222,0,0,0.07222222222222222,69.26111111111109,0)" xlink:href="#aA"/></g><path d="M190 0L58-211 59 0H30v-248h39L202-35l-2-213h31V0h-41" id="aR"/><path d="M30 0v-248h33v221h125V0H30" id="aS"/><g id="v"><use transform="matrix(0.07222222222222222,0,0,0.07222222222222222,0,0)" xlink:href="#aR"/><use transform="matrix(0.07222222222222222,0,0,0.07222222222222222,18.705555555555552,0)" xlink:href="#aS"/><use transform="matrix(0.07222222222222222,0,0,0.07222222222222222,33.14999999999999,0)" xlink:href="#aq"/></g><g id="w"><use transform="matrix(0.07222222222222222,0,0,0.07222222222222222,0,0)" xlink:href="#aI"/><use transform="matrix(0.07222222222222222,0,0,0.07222222222222222,7.222222222222221,0)" xlink:href="#at"/></g><g id="x"><use transform="matrix(0.07222222222222222,0,0,0.07222222222222222,0,0)" xlink:href="#aq"/><use transform="matrix(0.07222222222222222,0,0,0.07222222222222222,17.333333333333332,0)" xlink:href="#at"/><use transform="matrix(0.07222222222222222,0,0,0.07222222222222222,31.777777777777775,0)" xlink:href="#aI"/><use transform="matrix(0.07222222222222222,0,0,0.07222222222222222,38.99999999999999,0)" xlink:href="#ax"/><use transform="matrix(0.07222222222222222,0,0,0.07222222222222222,53.44444444444444,0)" xlink:href="#aI"/><use transform="matrix(0.07222222222222222,0,0,0.07222222222222222,60.666666666666664,0)" xlink:href="#at"/></g><path d="M25-224v-37h50v37H25zM25 0v-190h50V0H25" id="aT"/><path d="M121-226c-27-7-43 5-38 36h38v33H83V0H34v-157H6v-33h28c-9-59 32-81 87-68v32" id="aU"/><g id="y"><use transform="matrix(0.04938271604938272,0,0,0.04938271604938272,0,0)" xlink:href="#aT"/><use transform="matrix(0.04938271604938272,0,0,0.04938271604938272,4.938271604938272,0)" xlink:href="#aU"/></g><path d="M190-63c-7 42-38 67-86 67-59 0-84-38-90-98-12-110 154-137 174-36l-49 2c-2-19-15-32-35-32-30 0-35 28-38 64-6 74 65 87 74 30" id="aV"/><path d="M110-194c64 0 96 36 96 99 0 64-35 99-97 99-61 0-95-36-95-99 0-62 34-99 96-99zm-1 164c35 0 45-28 45-65 0-40-10-65-43-65-34 0-45 26-45 65 0 36 10 65 43 65" id="aW"/><path d="M220-157c-53 9-28 100-34 157h-49v-107c1-27-5-49-29-50C55-147 81-57 75 0H25l-1-190h47c2 12-1 28 3 38 10-53 101-56 108 0 13-22 24-43 59-42 82 1 51 116 57 194h-49v-107c-1-25-5-48-29-50" id="aX"/><path d="M133-34C117-15 103 5 69 4 32 3 11-16 11-54c-1-60 55-63 116-61 1-26-3-47-28-47-18 1-26 9-28 27l-52-2c7-38 36-58 82-57s74 22 75 68l1 82c-1 14 12 18 25 15v27c-30 8-71 5-69-32zm-48 3c29 0 43-24 42-57-32 0-66-3-65 30 0 17 8 27 23 27" id="aY"/><path d="M135-194c87-1 58 113 63 194h-50c-7-57 23-157-34-157-59 0-34 97-39 157H25l-1-190h47c2 12-1 28 3 38 12-26 28-41 61-42" id="aZ"/><path d="M88-194c31-1 46 15 58 34l-1-101h50l1 261h-48c-2-10 0-23-3-31C134-8 116 4 84 4 32 4 16-41 15-95c0-56 19-97 73-99zm17 164c33 0 40-30 41-66 1-37-9-64-41-64s-38 30-39 65c0 43 13 65 39 65" id="ba"/><g id="z"><use transform="matrix(0.04938271604938272,0,0,0.04938271604938272,0,0)" xlink:href="#aV"/><use transform="matrix(0.04938271604938272,0,0,0.04938271604938272,9.876543209876544,0)" xlink:href="#aW"/><use transform="matrix(0.04938271604938272,0,0,0.04938271604938272,20.69135802469136,0)" xlink:href="#aX"/><use transform="matrix(0.04938271604938272,0,0,0.04938271604938272,36.49382716049383,0)" xlink:href="#aX"/><use transform="matrix(0.04938271604938272,0,0,0.04938271604938272,52.2962962962963,0)" xlink:href="#aY"/><use transform="matrix(0.04938271604938272,0,0,0.04938271604938272,62.17283950617284,0)" xlink:href="#aZ"/><use transform="matrix(0.04938271604938272,0,0,0.04938271604938272,72.98765432098766,0)" xlink:href="#ba"/></g><path d="M25 0v-261h50V0H25" id="bb"/><path d="M137-138c1-29-70-34-71-4 15 46 118 7 119 86 1 83-164 76-172 9l43-7c4 19 20 25 44 25 33 8 57-30 24-41C81-84 22-81 20-136c-2-80 154-74 161-7" id="bc"/><path d="M185-48c-13 30-37 53-82 52C43 2 14-33 14-96s30-98 90-98c62 0 83 45 84 108H66c0 31 8 55 39 56 18 0 30-7 34-22zm-45-69c5-46-57-63-70-21-2 6-4 13-4 21h74" id="bd"/><g id="B"><use transform="matrix(0.04938271604938272,0,0,0.04938271604938272,0,0)" xlink:href="#aV"/><use transform="matrix(0.04938271604938272,0,0,0.04938271604938272,9.876543209876544,0)" xlink:href="#bb"/><use transform="matrix(0.04938271604938272,0,0,0.04938271604938272,14.814814814814817,0)" xlink:href="#aY"/><use transform="matrix(0.04938271604938272,0,0,0.04938271604938272,24.69135802469136,0)" xlink:href="#bc"/><use transform="matrix(0.04938271604938272,0,0,0.04938271604938272,34.567901234567906,0)" xlink:href="#bc"/><use transform="matrix(0.04938271604938272,0,0,0.04938271604938272,44.44444444444445,0)" xlink:href="#aT"/><use transform="matrix(0.04938271604938272,0,0,0.04938271604938272,49.38271604938272,0)" xlink:href="#aU"/><use transform="matrix(0.04938271604938272,0,0,0.04938271604938272,55.25925925925927,0)" xlink:href="#aT"/><use transform="matrix(0.04938271604938272,0,0,0.04938271604938272,60.19753086419754,0)" xlink:href="#bd"/><use transform="matrix(0.04938271604938272,0,0,0.04938271604938272,70.07407407407408,0)" xlink:href="#ba"/></g><path d="M135-194c52 0 70 43 70 98 0 56-19 99-73 100-30 1-46-15-58-35L72 0H24l1-261h50v104c11-23 29-37 60-37zM114-30c31 0 40-27 40-66 0-37-7-63-39-63s-41 28-41 65c0 36 8 64 40 64" id="be"/><path d="M123 10C108 53 80 86 19 72V37c35 8 53-11 59-39L3-190h52l48 148c12-52 28-100 44-148h51" id="bf"/><g id="C"><use transform="matrix(0.04938271604938272,0,0,0.04938271604938272,0,0)" xlink:href="#be"/><use transform="matrix(0.04938271604938272,0,0,0.04938271604938272,10.814814814814815,0)" xlink:href="#bf"/></g><path d="M135-150c-39-12-60 13-60 57V0H25l-1-190h47c2 13-1 29 3 40 6-28 27-53 61-41v41" id="bg"/><path d="M85 4C-2 5 27-109 22-190h50c7 57-23 150 33 157 60-5 35-97 40-157h50l1 190h-47c-2-12 1-28-3-38-12 25-28 42-61 42" id="bh"/><path d="M115-3C79 11 28 4 28-45v-112H4v-33h27l15-45h31v45h36v33H77v99c-1 23 16 31 38 25v30" id="bi"/><g id="D"><use transform="matrix(0.04938271604938272,0,0,0.04938271604938272,0,0)" xlink:href="#bg"/><use transform="matrix(0.04938271604938272,0,0,0.04938271604938272,6.913580246913581,0)" xlink:href="#aW"/><use transform="matrix(0.04938271604938272,0,0,0.04938271604938272,17.728395061728396,0)" xlink:href="#bh"/><use transform="matrix(0.04938271604938272,0,0,0.04938271604938272,28.543209876543205,0)" xlink:href="#bi"/><use transform="matrix(0.04938271604938272,0,0,0.04938271604938272,34.41975308641975,0)" xlink:href="#bd"/><use transform="matrix(0.04938271604938272,0,0,0.04938271604938272,44.2962962962963,0)" xlink:href="#bg"/></g><g id="E"><use transform="matrix(0.07222222222222222,0,0,0.07222222222222222,0,0)" xlink:href="#aC"/><use transform="matrix(0.07222222222222222,0,0,0.07222222222222222,18.705555555555552,0)" xlink:href="#av"/><use transform="matrix(0.07222222222222222,0,0,0.07222222222222222,33.14999999999999,0)" xlink:href="#as"/><use transform="matrix(0.07222222222222222,0,0,0.07222222222222222,46.149999999999984,0)" xlink:href="#at"/><use transform="matrix(0.07222222222222222,0,0,0.07222222222222222,60.59444444444443,0)" xlink:href="#aA"/><use transform="matrix(0.07222222222222222,0,0,0.07222222222222222,69.18888888888888,0)" xlink:href="#aB"/></g><g id="F"><use transform="matrix(0.07222222222222222,0,0,0.07222222222222222,0,0)" xlink:href="#az"/><use transform="matrix(0.07222222222222222,0,0,0.07222222222222222,18.705555555555552,0)" xlink:href="#ax"/><use transform="matrix(0.07222222222222222,0,0,0.07222222222222222,33.14999999999999,0)" xlink:href="#au"/></g><g id="G"><use transform="matrix(0.07222222222222222,0,0,0.07222222222222222,0,0)" xlink:href="#aO"/><use transform="matrix(0.07222222222222222,0,0,0.07222222222222222,14.444444444444443,0)" xlink:href="#aA"/><use transform="matrix(0.07222222222222222,0,0,0.07222222222222222,23.038888888888884,0)" xlink:href="#av"/><use transform="matrix(0.07222222222222222,0,0,0.07222222222222222,37.48333333333333,0)" xlink:href="#aG"/><use transform="matrix(0.07222222222222222,0,0,0.07222222222222222,50.48333333333333,0)" xlink:href="#aG"/></g><g id="H"><use transform="matrix(0.07222222222222222,0,0,0.07222222222222222,0,0)" xlink:href="#av"/><use transform="matrix(0.07222222222222222,0,0,0.07222222222222222,14.444444444444443,0)" xlink:href="#aG"/><use transform="matrix(0.07222222222222222,0,0,0.07222222222222222,27.444444444444443,0)" xlink:href="#as"/></g><path d="M140-251c81 0 123 46 123 126C263-46 219 4 140 4 59 4 17-45 17-125s42-126 123-126zm0 227c63 0 89-41 89-101s-29-99-89-99c-61 0-89 39-89 99S79-25 140-24" id="bj"/><path d="M33 0v-248h34V0H33" id="bk"/><g id="I"><use transform="matrix(0.07222222222222222,0,0,0.07222222222222222,0,0)" xlink:href="#bj"/><use transform="matrix(0.07222222222222222,0,0,0.07222222222222222,20.22222222222222,0)" xlink:href="#aO"/><use transform="matrix(0.07222222222222222,0,0,0.07222222222222222,34.666666666666664,0)" xlink:href="#av"/><use transform="matrix(0.07222222222222222,0,0,0.07222222222222222,49.11111111111111,0)" xlink:href="#aP"/><use transform="matrix(0.07222222222222222,0,0,0.07222222222222222,63.55555555555555,0)" xlink:href="#aD"/><use transform="matrix(0.07222222222222222,0,0,0.07222222222222222,80.88888888888889,0)" xlink:href="#bk"/></g><g id="J"><use transform="matrix(0.07222222222222222,0,0,0.07222222222222222,0,0)" xlink:href="#az"/><use transform="matrix(0.07222222222222222,0,0,0.07222222222222222,18.705555555555552,0)" xlink:href="#aH"/><use transform="matrix(0.07222222222222222,0,0,0.07222222222222222,33.14999999999999,0)" xlink:href="#ar"/><use transform="matrix(0.07222222222222222,0,0,0.07222222222222222,38.85555555555555,0)" xlink:href="#aG"/><use transform="matrix(0.07222222222222222,0,0,0.07222222222222222,51.85555555555555,0)" xlink:href="#aO"/><use transform="matrix(0.07222222222222222,0,0,0.07222222222222222,66.29999999999998,0)" xlink:href="#av"/><use transform="matrix(0.07222222222222222,0,0,0.07222222222222222,80.74444444444443,0)" xlink:href="#aA"/></g><path d="M101-234c-31-9-42 10-38 44h38v23H63V0H32v-167H5v-23h27c-7-52 17-82 69-68v24" id="bl"/><g id="K"><use transform="matrix(0.07222222222222222,0,0,0.07222222222222222,0,0)" xlink:href="#bl"/><use transform="matrix(0.07222222222222222,0,0,0.07222222222222222,7.222222222222221,0)" xlink:href="#at"/><use transform="matrix(0.07222222222222222,0,0,0.07222222222222222,21.666666666666664,0)" xlink:href="#aA"/></g><path d="M185-189c-5-48-123-54-124 2 14 75 158 14 163 119 3 78-121 87-175 55-17-10-28-26-33-46l33-7c5 56 141 63 141-1 0-78-155-14-162-118-5-82 145-84 179-34 5 7 8 16 11 25" id="bm"/><path d="M127-220V0H93v-220H8v-28h204v28h-85" id="bn"/><g id="L"><use transform="matrix(0.07222222222222222,0,0,0.07222222222222222,0,0)" xlink:href="#bm"/><use transform="matrix(0.07222222222222222,0,0,0.07222222222222222,17.333333333333332,0)" xlink:href="#bn"/><use transform="matrix(0.07222222222222222,0,0,0.07222222222222222,33.15,0)" xlink:href="#bn"/></g><g id="M"><use transform="matrix(0.07222222222222222,0,0,0.07222222222222222,0,0)" xlink:href="#aK"/><use transform="matrix(0.07222222222222222,0,0,0.07222222222222222,14.444444444444443,0)" xlink:href="#aA"/><use transform="matrix(0.07222222222222222,0,0,0.07222222222222222,23.038888888888884,0)" xlink:href="#at"/><use transform="matrix(0.07222222222222222,0,0,0.07222222222222222,37.48333333333333,0)" xlink:href="#ay"/><use transform="matrix(0.07222222222222222,0,0,0.07222222222222222,50.48333333333333,0)" xlink:href="#av"/><use transform="matrix(0.07222222222222222,0,0,0.07222222222222222,64.92777777777778,0)" xlink:href="#aP"/></g><g id="N"><use transform="matrix(0.07222222222222222,0,0,0.07222222222222222,0,0)" xlink:href="#aK"/><use transform="matrix(0.07222222222222222,0,0,0.07222222222222222,14.444444444444443,0)" xlink:href="#ax"/><use transform="matrix(0.07222222222222222,0,0,0.07222222222222222,28.888888888888886,0)" xlink:href="#aG"/><use transform="matrix(0.07222222222222222,0,0,0.07222222222222222,41.888888888888886,0)" xlink:href="#aH"/></g><path d="M118-107v75H92v-75H18v-26h74v-75h26v75h74v26h-74" id="bo"/><use transform="matrix(0.07222222222222222,0,0,0.07222222222222222,0,0)" xlink:href="#bo" id="O"/><g id="P"><use transform="matrix(0.07222222222222222,0,0,0.07222222222222222,0,0)" xlink:href="#av"/><use transform="matrix(0.07222222222222222,0,0,0.07222222222222222,14.444444444444443,0)" xlink:href="#aA"/><use transform="matrix(0.07222222222222222,0,0,0.07222222222222222,23.038888888888884,0)" xlink:href="#aA"/><use transform="matrix(0.07222222222222222,0,0,0.07222222222222222,31.633333333333326,0)" xlink:href="#at"/><use transform="matrix(0.07222222222222222,0,0,0.07222222222222222,46.07777777777777,0)" xlink:href="#aA"/></g><g id="Q"><use transform="matrix(0.07222222222222222,0,0,0.07222222222222222,0,0)" xlink:href="#aL"/><use transform="matrix(0.07222222222222222,0,0,0.07222222222222222,5.705555555555555,0)" xlink:href="#at"/><use transform="matrix(0.07222222222222222,0,0,0.07222222222222222,20.15,0)" xlink:href="#aQ"/></g><g id="S"><use transform="matrix(0.07222222222222222,0,0,0.07222222222222222,0,0)" xlink:href="#aQ"/><use transform="matrix(0.07222222222222222,0,0,0.07222222222222222,14.444444444444443,0)" xlink:href="#av"/><use transform="matrix(0.07222222222222222,0,0,0.07222222222222222,28.888888888888886,0)" xlink:href="#aP"/><use transform="matrix(0.07222222222222222,0,0,0.07222222222222222,43.33333333333333,0)" xlink:href="#av"/><use transform="matrix(0.07222222222222222,0,0,0.07222222222222222,57.77777777777777,0)" xlink:href="#aA"/><use transform="matrix(0.07222222222222222,0,0,0.07222222222222222,66.37222222222222,0)" xlink:href="#ax"/><use transform="matrix(0.07222222222222222,0,0,0.07222222222222222,80.81666666666666,0)" xlink:href="#aI"/><use transform="matrix(0.07222222222222222,0,0,0.07222222222222222,88.03888888888889,0)" xlink:href="#av"/></g><g id="T"><use transform="matrix(0.07222222222222222,0,0,0.07222222222222222,0,0)" xlink:href="#ax"/><use transform="matrix(0.07222222222222222,0,0,0.07222222222222222,14.444444444444443,0)" xlink:href="#aQ"/><use transform="matrix(0.07222222222222222,0,0,0.07222222222222222,28.888888888888886,0)" xlink:href="#ax"/><use transform="matrix(0.07222222222222222,0,0,0.07222222222222222,43.33333333333333,0)" xlink:href="#ar"/><use transform="matrix(0.07222222222222222,0,0,0.07222222222222222,49.038888888888884,0)" xlink:href="#aP"/></g><g id="U"><use transform="matrix(0.07222222222222222,0,0,0.07222222222222222,0,0)" xlink:href="#aG"/><use transform="matrix(0.07222222222222222,0,0,0.07222222222222222,12.999999999999998,0)" xlink:href="#at"/><use transform="matrix(0.07222222222222222,0,0,0.07222222222222222,27.444444444444443,0)" xlink:href="#aA"/><use transform="matrix(0.07222222222222222,0,0,0.07222222222222222,36.038888888888884,0)" xlink:href="#aA"/><use transform="matrix(0.07222222222222222,0,0,0.07222222222222222,44.633333333333326,0)" xlink:href="#aJ"/></g><use transform="matrix(0.07222222222222222,0,0,0.07222222222222222,0,0)" xlink:href="#ar" id="V"/><g id="W"><use transform="matrix(0.07222222222222222,0,0,0.07222222222222222,0,0)" xlink:href="#aB"/><use transform="matrix(0.07222222222222222,0,0,0.07222222222222222,14.444444444444443,0)" xlink:href="#at"/><use transform="matrix(0.07222222222222222,0,0,0.07222222222222222,28.888888888888886,0)" xlink:href="#aP"/><use transform="matrix(0.07222222222222222,0,0,0.07222222222222222,43.33333333333333,0)" xlink:href="#aI"/></g><g id="X"><use transform="matrix(0.07222222222222222,0,0,0.07222222222222222,0,0)" xlink:href="#aH"/><use transform="matrix(0.07222222222222222,0,0,0.07222222222222222,14.444444444444443,0)" xlink:href="#ax"/><use transform="matrix(0.07222222222222222,0,0,0.07222222222222222,28.888888888888886,0)" xlink:href="#au"/><use transform="matrix(0.07222222222222222,0,0,0.07222222222222222,41.888888888888886,0)" xlink:href="#av"/></g><g id="Y"><use transform="matrix(0.07222222222222222,0,0,0.07222222222222222,0,0)" xlink:href="#aI"/><use transform="matrix(0.07222222222222222,0,0,0.07222222222222222,7.222222222222221,0)" xlink:href="#aH"/><use transform="matrix(0.07222222222222222,0,0,0.07222222222222222,21.666666666666664,0)" xlink:href="#ax"/><use transform="matrix(0.07222222222222222,0,0,0.07222222222222222,36.11111111111111,0)" xlink:href="#aI"/></g><g id="Z"><use transform="matrix(0.07222222222222222,0,0,0.07222222222222222,0,0)" xlink:href="#as"/><use transform="matrix(0.07222222222222222,0,0,0.07222222222222222,12.999999999999998,0)" xlink:href="#ax"/><use transform="matrix(0.07222222222222222,0,0,0.07222222222222222,27.444444444444443,0)" xlink:href="#aO"/><use transform="matrix(0.07222222222222222,0,0,0.07222222222222222,41.888888888888886,0)" xlink:href="#ax"/><use transform="matrix(0.07222222222222222,0,0,0.07222222222222222,56.33333333333333,0)" xlink:href="#aK"/><use transform="matrix(0.07222222222222222,0,0,0.07222222222222222,70.77777777777777,0)" xlink:href="#aL"/><use transform="matrix(0.07222222222222222,0,0,0.07222222222222222,76.48333333333332,0)" xlink:href="#ar"/><use transform="matrix(0.07222222222222222,0,0,0.07222222222222222,82.18888888888887,0)" xlink:href="#aI"/><use transform="matrix(0.07222222222222222,0,0,0.07222222222222222,89.4111111111111,0)" xlink:href="#aJ"/></g><path d="M68-38c1 34 0 65-14 84H32c9-13 17-26 17-46H33v-38h35" id="bp"/><g id="aa"><use transform="matrix(0.07222222222222222,0,0,0.07222222222222222,0,0)" xlink:href="#aJ"/><use transform="matrix(0.07222222222222222,0,0,0.07222222222222222,12.999999999999998,0)" xlink:href="#av"/><use transform="matrix(0.07222222222222222,0,0,0.07222222222222222,27.444444444444443,0)" xlink:href="#aI"/><use transform="matrix(0.07222222222222222,0,0,0.07222222222222222,34.666666666666664,0)" xlink:href="#bp"/></g><g id="ab"><use transform="matrix(0.07222222222222222,0,0,0.07222222222222222,0,0)" xlink:href="#ar"/><use transform="matrix(0.07222222222222222,0,0,0.07222222222222222,5.705555555555555,0)" xlink:href="#aM"/></g><g id="ac"><use transform="matrix(0.07222222222222222,0,0,0.07222222222222222,0,0)" xlink:href="#aG"/><use transform="matrix(0.07222222222222222,0,0,0.07222222222222222,12.999999999999998,0)" xlink:href="#aI"/><use transform="matrix(0.07222222222222222,0,0,0.07222222222222222,20.22222222222222,0)" xlink:href="#ar"/><use transform="matrix(0.07222222222222222,0,0,0.07222222222222222,25.927777777777774,0)" xlink:href="#aL"/><use transform="matrix(0.07222222222222222,0,0,0.07222222222222222,31.633333333333333,0)" xlink:href="#aL"/></g><g id="ad"><use transform="matrix(0.07222222222222222,0,0,0.07222222222222222,0,0)" xlink:href="#aL"/><use transform="matrix(0.07222222222222222,0,0,0.07222222222222222,5.705555555555555,0)" xlink:href="#av"/><use transform="matrix(0.07222222222222222,0,0,0.07222222222222222,20.15,0)" xlink:href="#ax"/><use transform="matrix(0.07222222222222222,0,0,0.07222222222222222,34.59444444444444,0)" xlink:href="#aA"/><use transform="matrix(0.07222222222222222,0,0,0.07222222222222222,43.18888888888888,0)" xlink:href="#aP"/><use transform="matrix(0.07222222222222222,0,0,0.07222222222222222,57.633333333333326,0)" xlink:href="#ar"/><use transform="matrix(0.07222222222222222,0,0,0.07222222222222222,63.33888888888888,0)" xlink:href="#aP"/><use transform="matrix(0.07222222222222222,0,0,0.07222222222222222,77.78333333333333,0)" xlink:href="#aQ"/></g><g id="ae"><use transform="matrix(0.07222222222222222,0,0,0.07222222222222222,0,0)" xlink:href="#aS"/><use transform="matrix(0.07222222222222222,0,0,0.07222222222222222,14.444444444444443,0)" xlink:href="#at"/><use transform="matrix(0.07222222222222222,0,0,0.07222222222222222,28.888888888888886,0)" xlink:href="#at"/><use transform="matrix(0.07222222222222222,0,0,0.07222222222222222,43.33333333333333,0)" xlink:href="#ay"/><use transform="matrix(0.07222222222222222,0,0,0.07222222222222222,56.33333333333333,0)" xlink:href="#aG"/></g><g id="af"><use transform="matrix(0.07222222222222222,0,0,0.07222222222222222,0,0)" xlink:href="#aQ"/><use transform="matrix(0.07222222222222222,0,0,0.07222222222222222,14.444444444444443,0)" xlink:href="#at"/><use transform="matrix(0.07222222222222222,0,0,0.07222222222222222,28.888888888888886,0)" xlink:href="#at"/><use transform="matrix(0.07222222222222222,0,0,0.07222222222222222,43.33333333333333,0)" xlink:href="#aB"/></g><g id="ag"><use transform="matrix(0.07222222222222222,0,0,0.07222222222222222,0,0)" xlink:href="#as"/><use transform="matrix(0.07222222222222222,0,0,0.07222222222222222,12.999999999999998,0)" xlink:href="#aH"/><use transform="matrix(0.07222222222222222,0,0,0.07222222222222222,27.444444444444443,0)" xlink:href="#av"/><use transform="matrix(0.07222222222222222,0,0,0.07222222222222222,41.888888888888886,0)" xlink:href="#as"/><use transform="matrix(0.07222222222222222,0,0,0.07222222222222222,54.888888888888886,0)" xlink:href="#ay"/></g><g id="ah"><use transform="matrix(0.07222222222222222,0,0,0.07222222222222222,0,0)" xlink:href="#bl"/><use transform="matrix(0.07222222222222222,0,0,0.07222222222222222,7.222222222222221,0)" xlink:href="#at"/><use transform="matrix(0.07222222222222222,0,0,0.07222222222222222,21.666666666666664,0)" xlink:href="#aA"/></g><g id="ai"><use transform="matrix(0.07222222222222222,0,0,0.07222222222222222,0,0)" xlink:href="#aK"/><use transform="matrix(0.07222222222222222,0,0,0.07222222222222222,14.444444444444443,0)" xlink:href="#ax"/><use transform="matrix(0.07222222222222222,0,0,0.07222222222222222,28.888888888888886,0)" xlink:href="#aG"/><use transform="matrix(0.07222222222222222,0,0,0.07222222222222222,41.888888888888886,0)" xlink:href="#ar"/><use transform="matrix(0.07222222222222222,0,0,0.07222222222222222,47.59444444444444,0)" xlink:href="#as"/></g><g id="aj"><use transform="matrix(0.07222222222222222,0,0,0.07222222222222222,0,0)" xlink:href="#aG"/><use transform="matrix(0.07222222222222222,0,0,0.07222222222222222,12.999999999999998,0)" xlink:href="#aO"/><use transform="matrix(0.07222222222222222,0,0,0.07222222222222222,27.444444444444443,0)" xlink:href="#av"/><use transform="matrix(0.07222222222222222,0,0,0.07222222222222222,41.888888888888886,0)" xlink:href="#aL"/><use transform="matrix(0.07222222222222222,0,0,0.07222222222222222,47.59444444444444,0)" xlink:href="#aL"/><use transform="matrix(0.07222222222222222,0,0,0.07222222222222222,53.3,0)" xlink:href="#ar"/><use transform="matrix(0.07222222222222222,0,0,0.07222222222222222,59.00555555555555,0)" xlink:href="#aP"/><use transform="matrix(0.07222222222222222,0,0,0.07222222222222222,73.44999999999999,0)" xlink:href="#aQ"/><use transform="matrix(0.07222222222222222,0,0,0.07222222222222222,87.89444444444443,0)" xlink:href="#aG"/></g><g id="ak"><use transform="matrix(0.07222222222222222,0,0,0.07222222222222222,0,0)" xlink:href="#aQ"/><use transform="matrix(0.07222222222222222,0,0,0.07222222222222222,14.444444444444443,0)" xlink:href="#at"/><use transform="matrix(0.07222222222222222,0,0,0.07222222222222222,28.888888888888886,0)" xlink:href="#at"/><use transform="matrix(0.07222222222222222,0,0,0.07222222222222222,43.33333333333333,0)" xlink:href="#aB"/></g><g id="al"><use transform="matrix(0.07222222222222222,0,0,0.07222222222222222,0,0)" xlink:href="#as"/><use transform="matrix(0.07222222222222222,0,0,0.07222222222222222,12.999999999999998,0)" xlink:href="#aH"/><use transform="matrix(0.07222222222222222,0,0,0.07222222222222222,27.444444444444443,0)" xlink:href="#av"/><use transform="matrix(0.07222222222222222,0,0,0.07222222222222222,41.888888888888886,0)" xlink:href="#as"/><use transform="matrix(0.07222222222222222,0,0,0.07222222222222222,54.888888888888886,0)" xlink:href="#ay"/></g><g id="am"><use transform="matrix(0.07222222222222222,0,0,0.07222222222222222,0,0)" xlink:href="#as"/><use transform="matrix(0.07222222222222222,0,0,0.07222222222222222,12.999999999999998,0)" xlink:href="#at"/><use transform="matrix(0.07222222222222222,0,0,0.07222222222222222,27.444444444444443,0)" xlink:href="#aM"/><use transform="matrix(0.07222222222222222,0,0,0.07222222222222222,49.038888888888884,0)" xlink:href="#aM"/><use transform="matrix(0.07222222222222222,0,0,0.07222222222222222,70.63333333333333,0)" xlink:href="#ax"/><use transform="matrix(0.07222222222222222,0,0,0.07222222222222222,85.07777777777777,0)" xlink:href="#aP"/><use transform="matrix(0.07222222222222222,0,0,0.07222222222222222,99.52222222222221,0)" xlink:href="#aB"/></g><path d="M103-251c84 0 111 97 45 133-19 10-37 24-39 52H78c0-63 77-55 77-114 0-30-21-42-52-43-32 0-53 17-56 46l-32-2c7-45 34-72 88-72zM77 0v-35h34V0H77" id="bq"/><g id="an"><use transform="matrix(0.07222222222222222,0,0,0.07222222222222222,0,0)" xlink:href="#az"/><use transform="matrix(0.07222222222222222,0,0,0.07222222222222222,18.705555555555552,0)" xlink:href="#at"/><use transform="matrix(0.07222222222222222,0,0,0.07222222222222222,33.14999999999999,0)" xlink:href="#aA"/><use transform="matrix(0.07222222222222222,0,0,0.07222222222222222,41.74444444444443,0)" xlink:href="#ay"/><use transform="matrix(0.07222222222222222,0,0,0.07222222222222222,54.74444444444443,0)" xlink:href="#av"/><use transform="matrix(0.07222222222222222,0,0,0.07222222222222222,69.18888888888887,0)" xlink:href="#aB"/><use transform="matrix(0.07222222222222222,0,0,0.07222222222222222,83.63333333333331,0)" xlink:href="#bq"/></g><path d="M0 4l72-265h28L28 4H0" id="br"/><g id="ap"><use transform="matrix(0.07222222222222222,0,0,0.07222222222222222,0,0)" xlink:href="#aJ"/><use transform="matrix(0.07222222222222222,0,0,0.07222222222222222,12.999999999999998,0)" xlink:href="#av"/><use transform="matrix(0.07222222222222222,0,0,0.07222222222222222,27.444444444444443,0)" xlink:href="#aG"/><use transform="matrix(0.07222222222222222,0,0,0.07222222222222222,40.44444444444444,0)" xlink:href="#br"/><use transform="matrix(0.07222222222222222,0,0,0.07222222222222222,47.666666666666664,0)" xlink:href="#aP"/><use transform="matrix(0.07222222222222222,0,0,0.07222222222222222,62.11111111111111,0)" xlink:href="#at"/><use transform="matrix(0.07222222222222222,0,0,0.07222222222222222,76.55555555555554,0)" xlink:href="#br"/><use transform="matrix(0.07222222222222222,0,0,0.07222222222222222,83.77777777777777,0)" xlink:href="#aG"/><use transform="matrix(0.07222222222222222,0,0,0.07222222222222222,96.77777777777777,0)" xlink:href="#aI"/><use transform="matrix(0.07222222222222222,0,0,0.07222222222222222,104,0)" xlink:href="#at"/><use transform="matrix(0.07222222222222222,0,0,0.07222222222222222,118.44444444444444,0)" xlink:href="#aO"/></g></defs></g></svg>